<svg width="25" height="24" viewBox="0 0 25 24" fill="none" xmlns="http://www.w3.org/2000/svg">
<path d="M10.8464 16.73C10.7151 16.7303 10.5851 16.7046 10.4637 16.6545C10.3424 16.6044 10.2322 16.5308 10.1394 16.438L5.89735 12.195C5.80178 12.1028 5.72552 11.9925 5.67303 11.8706C5.62054 11.7486 5.59286 11.6174 5.59161 11.4846C5.59037 11.3518 5.61557 11.2201 5.66577 11.0972C5.71596 10.9743 5.79014 10.8626 5.88396 10.7686C5.97779 10.6747 6.08938 10.6003 6.21224 10.55C6.3351 10.4996 6.46676 10.4742 6.59954 10.4753C6.73232 10.4763 6.86356 10.5038 6.9856 10.5561C7.10764 10.6085 7.21804 10.6846 7.31035 10.78L10.8454 14.315L17.2104 7.952C17.3979 7.76436 17.6522 7.65889 17.9175 7.6588C18.1828 7.6587 18.4372 7.76399 18.6249 7.9515C18.8125 8.13901 18.918 8.39338 18.9181 8.65865C18.9182 8.92392 18.8129 9.17836 18.6254 9.366L11.5534 16.438C11.4605 16.5308 11.3503 16.6044 11.229 16.6545C11.1076 16.7046 10.9776 16.7303 10.8464 16.73Z" fill="#2FAB73"/>
</svg>
